<mxfile host="app.diagrams.net" modified="2020-09-04T15:29:17.581Z" agent="5.0 (Windows NT 10.0; Win64; x64) AppleWebKit/537.36 (KHTML, like Gecko) Chrome/85.0.4183.83 Safari/537.36" etag="64cSgB1umnkWss1Tc76f" version="13.6.6" type="github" pages="2">
  <diagram id="LcfqEYmEtvxjGJsf0eMx" name="Page-1">
    <mxGraphModel dx="782" dy="420" grid="1" gridSize="10" guides="1" tooltips="1" connect="1" arrows="1" fold="1" page="1" pageScale="1" pageWidth="827" pageHeight="1169" math="0" shadow="0">
      <root>
        <mxCell id="0" />
        <mxCell id="1" parent="0" />
        <mxCell id="fjtgjWhdN9lYNpHxC0y4-1" value="" style="rounded=0;whiteSpace=wrap;html=1;" vertex="1" parent="1">
          <mxGeometry x="30" y="90" width="740" height="690" as="geometry" />
        </mxCell>
        <mxCell id="fjtgjWhdN9lYNpHxC0y4-2" value="" style="rounded=0;whiteSpace=wrap;html=1;" vertex="1" parent="1">
          <mxGeometry x="70" y="280" width="190" height="220" as="geometry" />
        </mxCell>
        <mxCell id="fjtgjWhdN9lYNpHxC0y4-3" value="" style="rounded=0;whiteSpace=wrap;html=1;" vertex="1" parent="1">
          <mxGeometry x="280" y="280" width="190" height="220" as="geometry" />
        </mxCell>
        <mxCell id="fjtgjWhdN9lYNpHxC0y4-4" value="" style="rounded=0;whiteSpace=wrap;html=1;" vertex="1" parent="1">
          <mxGeometry x="490" y="280" width="210" height="220" as="geometry" />
        </mxCell>
        <mxCell id="fjtgjWhdN9lYNpHxC0y4-5" value="Aracı Kurum Haber Sayıları" style="text;html=1;strokeColor=none;fillColor=none;align=center;verticalAlign=middle;whiteSpace=wrap;rounded=0;" vertex="1" parent="1">
          <mxGeometry x="80" y="300" width="150" height="20" as="geometry" />
        </mxCell>
        <mxCell id="fjtgjWhdN9lYNpHxC0y4-6" value="Twitter" style="text;html=1;strokeColor=none;fillColor=none;align=center;verticalAlign=middle;whiteSpace=wrap;rounded=0;" vertex="1" parent="1">
          <mxGeometry x="300" y="300" width="40" height="20" as="geometry" />
        </mxCell>
        <mxCell id="fjtgjWhdN9lYNpHxC0y4-7" value="Trends" style="text;html=1;strokeColor=none;fillColor=none;align=center;verticalAlign=middle;whiteSpace=wrap;rounded=0;" vertex="1" parent="1">
          <mxGeometry x="510" y="300" width="40" height="20" as="geometry" />
        </mxCell>
        <mxCell id="fjtgjWhdN9lYNpHxC0y4-8" value="Aselsan" style="text;html=1;strokeColor=none;fillColor=none;align=center;verticalAlign=middle;whiteSpace=wrap;rounded=0;" vertex="1" parent="1">
          <mxGeometry x="80" y="330" width="40" height="20" as="geometry" />
        </mxCell>
        <mxCell id="fjtgjWhdN9lYNpHxC0y4-9" value="4" style="text;html=1;strokeColor=none;fillColor=none;align=center;verticalAlign=middle;whiteSpace=wrap;rounded=0;" vertex="1" parent="1">
          <mxGeometry x="135" y="330" width="40" height="20" as="geometry" />
        </mxCell>
        <mxCell id="fjtgjWhdN9lYNpHxC0y4-10" value="###" style="text;html=1;strokeColor=none;fillColor=none;align=center;verticalAlign=middle;whiteSpace=wrap;rounded=0;" vertex="1" parent="1">
          <mxGeometry x="80" y="360" width="40" height="20" as="geometry" />
        </mxCell>
        <mxCell id="fjtgjWhdN9lYNpHxC0y4-11" value="###" style="text;html=1;strokeColor=none;fillColor=none;align=center;verticalAlign=middle;whiteSpace=wrap;rounded=0;" vertex="1" parent="1">
          <mxGeometry x="80" y="390" width="40" height="20" as="geometry" />
        </mxCell>
        <mxCell id="fjtgjWhdN9lYNpHxC0y4-12" value="###" style="text;html=1;strokeColor=none;fillColor=none;align=center;verticalAlign=middle;whiteSpace=wrap;rounded=0;" vertex="1" parent="1">
          <mxGeometry x="135" y="360" width="40" height="20" as="geometry" />
        </mxCell>
        <mxCell id="fjtgjWhdN9lYNpHxC0y4-13" value="........" style="text;html=1;strokeColor=none;fillColor=none;align=center;verticalAlign=middle;whiteSpace=wrap;rounded=0;" vertex="1" parent="1">
          <mxGeometry x="135" y="390" width="40" height="90" as="geometry" />
        </mxCell>
        <mxCell id="txgx_Xxt6PGx62Sgm83E-1" value="Aslında tahmin etmeye çalıştığınızın insanların davranışları olduğunu unutmayın&lt;br&gt;Ulakfin size bunu sağlıyor..." style="text;html=1;strokeColor=none;fillColor=none;align=center;verticalAlign=middle;whiteSpace=wrap;rounded=0;" vertex="1" parent="1">
          <mxGeometry x="120" y="160" width="450" height="20" as="geometry" />
        </mxCell>
      </root>
    </mxGraphModel>
  </diagram>
  <diagram id="urSe71VG5g9EFyc1SyvC" name="Page-2">
    <mxGraphModel dx="782" dy="420" grid="1" gridSize="10" guides="1" tooltips="1" connect="1" arrows="1" fold="1" page="1" pageScale="1" pageWidth="827" pageHeight="1169" math="0" shadow="0">
      <root>
        <mxCell id="cIJ_WQR91GRco4EYi2IJ-0" />
        <mxCell id="cIJ_WQR91GRco4EYi2IJ-1" parent="cIJ_WQR91GRco4EYi2IJ-0" />
        <mxCell id="i56D42FVd3ZtuKQbRsSF-31" value="" style="rounded=1;whiteSpace=wrap;html=1;" vertex="1" parent="cIJ_WQR91GRco4EYi2IJ-1">
          <mxGeometry x="150" y="400" width="480" height="60" as="geometry" />
        </mxCell>
        <mxCell id="i56D42FVd3ZtuKQbRsSF-23" value="" style="rounded=0;whiteSpace=wrap;html=1;" vertex="1" parent="cIJ_WQR91GRco4EYi2IJ-1">
          <mxGeometry x="195" y="410" width="120" height="60" as="geometry" />
        </mxCell>
        <mxCell id="i56D42FVd3ZtuKQbRsSF-3" value="" style="rounded=0;whiteSpace=wrap;html=1;" vertex="1" parent="cIJ_WQR91GRco4EYi2IJ-1">
          <mxGeometry x="110" y="60" width="680" height="740" as="geometry" />
        </mxCell>
        <mxCell id="i56D42FVd3ZtuKQbRsSF-2" value="&lt;h1&gt;ASELS&lt;/h1&gt;&lt;p&gt;ASELSAN ELEKTRONİK SANAYİ VE TİCARET A.Ş.&lt;/p&gt;" style="text;html=1;strokeColor=none;fillColor=none;spacing=5;spacingTop=-20;whiteSpace=wrap;overflow=hidden;rounded=0;" vertex="1" parent="cIJ_WQR91GRco4EYi2IJ-1">
          <mxGeometry x="140" y="100" width="300" height="120" as="geometry" />
        </mxCell>
        <mxCell id="i56D42FVd3ZtuKQbRsSF-4" value="&lt;h1&gt;&lt;span style=&quot;font-size: 12px&quot;&gt;ASELS dün ne kadar popülerdi?&lt;/span&gt;&lt;/h1&gt;&lt;div&gt;&lt;span style=&quot;font-size: 12px ; font-weight: 400&quot;&gt;Aracı kurumlarda geçen haber sayısı:&lt;/span&gt;&lt;/div&gt;&lt;div&gt;&lt;span style=&quot;font-size: 12px ; font-weight: 400&quot;&gt;Twitter hashtag:&lt;/span&gt;&lt;/div&gt;&lt;div&gt;&lt;span style=&quot;font-size: 12px ; font-weight: 400&quot;&gt;Google&#39;da aranma:&lt;/span&gt;&lt;/div&gt;" style="text;html=1;strokeColor=none;fillColor=none;spacing=5;spacingTop=-20;whiteSpace=wrap;overflow=hidden;rounded=0;" vertex="1" parent="cIJ_WQR91GRco4EYi2IJ-1">
          <mxGeometry x="140" y="180" width="230" height="110" as="geometry" />
        </mxCell>
        <mxCell id="i56D42FVd3ZtuKQbRsSF-5" value="" style="rounded=0;whiteSpace=wrap;html=1;" vertex="1" parent="cIJ_WQR91GRco4EYi2IJ-1">
          <mxGeometry x="135" y="310" width="630" height="250" as="geometry" />
        </mxCell>
        <mxCell id="i56D42FVd3ZtuKQbRsSF-6" value="" style="rounded=0;whiteSpace=wrap;html=1;" vertex="1" parent="cIJ_WQR91GRco4EYi2IJ-1">
          <mxGeometry x="520" y="200" width="240" height="80" as="geometry" />
        </mxCell>
        <mxCell id="i56D42FVd3ZtuKQbRsSF-7" value="Hisse İstatistikleri:" style="text;html=1;strokeColor=none;fillColor=none;align=center;verticalAlign=middle;whiteSpace=wrap;rounded=0;" vertex="1" parent="cIJ_WQR91GRco4EYi2IJ-1">
          <mxGeometry x="530" y="210" width="120" height="20" as="geometry" />
        </mxCell>
        <mxCell id="i56D42FVd3ZtuKQbRsSF-10" value="&lt;b&gt;&lt;font style=&quot;font-size: 16px&quot;&gt;ARACI KURUM HABERLERİ:&lt;/font&gt;&lt;/b&gt;" style="text;html=1;strokeColor=none;fillColor=none;align=center;verticalAlign=middle;whiteSpace=wrap;rounded=0;" vertex="1" parent="cIJ_WQR91GRco4EYi2IJ-1">
          <mxGeometry x="150" y="320" width="230" height="40" as="geometry" />
        </mxCell>
        <mxCell id="i56D42FVd3ZtuKQbRsSF-11" value="&lt;br&gt;&lt;br&gt;&lt;ol style=&quot;color: rgb(0 , 0 , 0) ; font-family: &amp;#34;helvetica&amp;#34; ; font-size: 12px ; font-style: normal ; font-weight: 400 ; letter-spacing: normal ; text-align: left ; text-indent: 0px ; text-transform: none ; word-spacing: 0px ; background-color: rgb(248 , 249 , 250)&quot;&gt;&lt;li style=&quot;text-align: justify&quot;&gt;Şirket, Ukrayna&#39;da&amp;nbsp;pazarlama ve iş&amp;nbsp;geliştirme faaliyetlerini yürütmek adına &quot;ASELSAN Ukraine LLC.&quot; ünvanlı şirketin 1 Eylül&amp;nbsp;2020 tarihi itibariyle tescil edildiğini açıkladı.&amp;nbsp; -Halk Yatırım&lt;/li&gt;&lt;/ol&gt;&lt;br&gt;" style="text;html=1;strokeColor=none;fillColor=none;align=center;verticalAlign=middle;whiteSpace=wrap;rounded=0;" vertex="1" parent="cIJ_WQR91GRco4EYi2IJ-1">
          <mxGeometry x="135" y="380" width="570" height="20" as="geometry" />
        </mxCell>
        <mxCell id="i56D42FVd3ZtuKQbRsSF-15" value="Puan Ver" style="text;html=1;strokeColor=none;fillColor=none;align=center;verticalAlign=middle;whiteSpace=wrap;rounded=0;fontStyle=1;labelBackgroundColor=#ffffff;" vertex="1" parent="cIJ_WQR91GRco4EYi2IJ-1">
          <mxGeometry x="550" y="425" width="60" height="20" as="geometry" />
        </mxCell>
        <mxCell id="i56D42FVd3ZtuKQbRsSF-16" value="Yüksek Artış" style="text;html=1;strokeColor=none;fillColor=none;align=center;verticalAlign=middle;whiteSpace=wrap;rounded=0;" vertex="1" parent="cIJ_WQR91GRco4EYi2IJ-1">
          <mxGeometry x="160" y="425" width="90" height="20" as="geometry" />
        </mxCell>
        <mxCell id="i56D42FVd3ZtuKQbRsSF-18" value="Artış" style="text;html=1;strokeColor=none;fillColor=none;align=center;verticalAlign=middle;whiteSpace=wrap;rounded=0;" vertex="1" parent="cIJ_WQR91GRco4EYi2IJ-1">
          <mxGeometry x="260" y="425" width="40" height="20" as="geometry" />
        </mxCell>
        <mxCell id="i56D42FVd3ZtuKQbRsSF-19" value="Nötr" style="text;html=1;strokeColor=none;fillColor=none;align=center;verticalAlign=middle;whiteSpace=wrap;rounded=0;" vertex="1" parent="cIJ_WQR91GRco4EYi2IJ-1">
          <mxGeometry x="320" y="425" width="40" height="20" as="geometry" />
        </mxCell>
        <mxCell id="i56D42FVd3ZtuKQbRsSF-20" value="Düşüş" style="text;html=1;strokeColor=none;fillColor=none;align=center;verticalAlign=middle;whiteSpace=wrap;rounded=0;" vertex="1" parent="cIJ_WQR91GRco4EYi2IJ-1">
          <mxGeometry x="370" y="425" width="40" height="20" as="geometry" />
        </mxCell>
        <mxCell id="i56D42FVd3ZtuKQbRsSF-21" value="Yüksek Düşüş" style="text;html=1;strokeColor=none;fillColor=none;align=center;verticalAlign=middle;whiteSpace=wrap;rounded=0;" vertex="1" parent="cIJ_WQR91GRco4EYi2IJ-1">
          <mxGeometry x="430" y="425" width="90" height="20" as="geometry" />
        </mxCell>
        <mxCell id="i56D42FVd3ZtuKQbRsSF-24" value="Yorumlar" style="text;html=1;strokeColor=none;fillColor=none;align=center;verticalAlign=middle;whiteSpace=wrap;rounded=0;fontStyle=2" vertex="1" parent="cIJ_WQR91GRco4EYi2IJ-1">
          <mxGeometry x="665" y="425" width="40" height="20" as="geometry" />
        </mxCell>
        <mxCell id="i56D42FVd3ZtuKQbRsSF-29" value="&lt;font&gt;Tarih: 9/4/2020&lt;/font&gt;" style="text;html=1;strokeColor=none;fillColor=none;align=center;verticalAlign=middle;whiteSpace=wrap;rounded=0;" vertex="1" parent="cIJ_WQR91GRco4EYi2IJ-1">
          <mxGeometry x="520" y="330" width="120" height="20" as="geometry" />
        </mxCell>
        <mxCell id="i56D42FVd3ZtuKQbRsSF-32" value="2. Ukrayna’da pazarlama ve iş geliştirme faaliyetlerini yürütmek adına “ASELSAN Ukraine LLC.” ünvanlı şirket 1 Eylül 2020 tarihi itibariyle tescil edilmiştir.&amp;nbsp; -A1Capital" style="text;html=1;strokeColor=none;fillColor=none;align=left;verticalAlign=middle;whiteSpace=wrap;rounded=0;labelBackgroundColor=#ffffff;fontColor=#000000;" vertex="1" parent="cIJ_WQR91GRco4EYi2IJ-1">
          <mxGeometry x="160" y="470" width="560" height="20" as="geometry" />
        </mxCell>
        <mxCell id="i56D42FVd3ZtuKQbRsSF-33" value="Yüksek Artış" style="text;html=1;strokeColor=none;fillColor=none;align=center;verticalAlign=middle;whiteSpace=wrap;rounded=0;" vertex="1" parent="cIJ_WQR91GRco4EYi2IJ-1">
          <mxGeometry x="160" y="510" width="90" height="20" as="geometry" />
        </mxCell>
        <mxCell id="i56D42FVd3ZtuKQbRsSF-34" value="Artış" style="text;html=1;strokeColor=none;fillColor=none;align=center;verticalAlign=middle;whiteSpace=wrap;rounded=0;" vertex="1" parent="cIJ_WQR91GRco4EYi2IJ-1">
          <mxGeometry x="260" y="510" width="40" height="20" as="geometry" />
        </mxCell>
        <mxCell id="i56D42FVd3ZtuKQbRsSF-35" value="Nötr" style="text;html=1;strokeColor=none;fillColor=none;align=center;verticalAlign=middle;whiteSpace=wrap;rounded=0;" vertex="1" parent="cIJ_WQR91GRco4EYi2IJ-1">
          <mxGeometry x="320" y="510" width="40" height="20" as="geometry" />
        </mxCell>
        <mxCell id="i56D42FVd3ZtuKQbRsSF-36" value="Düşüş" style="text;html=1;strokeColor=none;fillColor=none;align=center;verticalAlign=middle;whiteSpace=wrap;rounded=0;" vertex="1" parent="cIJ_WQR91GRco4EYi2IJ-1">
          <mxGeometry x="370" y="510" width="40" height="20" as="geometry" />
        </mxCell>
        <mxCell id="i56D42FVd3ZtuKQbRsSF-37" value="Yüksek Düşüş" style="text;html=1;strokeColor=none;fillColor=none;align=center;verticalAlign=middle;whiteSpace=wrap;rounded=0;" vertex="1" parent="cIJ_WQR91GRco4EYi2IJ-1">
          <mxGeometry x="430" y="510" width="90" height="20" as="geometry" />
        </mxCell>
        <mxCell id="i56D42FVd3ZtuKQbRsSF-38" value="Puan Ver" style="text;html=1;strokeColor=none;fillColor=none;align=center;verticalAlign=middle;whiteSpace=wrap;rounded=0;fontStyle=1;labelBackgroundColor=#ffffff;" vertex="1" parent="cIJ_WQR91GRco4EYi2IJ-1">
          <mxGeometry x="550" y="510" width="60" height="20" as="geometry" />
        </mxCell>
        <mxCell id="i56D42FVd3ZtuKQbRsSF-39" value="Yorumlar" style="text;html=1;strokeColor=none;fillColor=none;align=center;verticalAlign=middle;whiteSpace=wrap;rounded=0;fontStyle=2" vertex="1" parent="cIJ_WQR91GRco4EYi2IJ-1">
          <mxGeometry x="665" y="510" width="40" height="20" as="geometry" />
        </mxCell>
        <mxCell id="i56D42FVd3ZtuKQbRsSF-44" value="" style="rounded=0;whiteSpace=wrap;html=1;labelBackgroundColor=#ffffff;fontColor=#000000;align=left;" vertex="1" parent="cIJ_WQR91GRco4EYi2IJ-1">
          <mxGeometry x="750" y="310" width="15" height="60" as="geometry" />
        </mxCell>
        <mxCell id="i56D42FVd3ZtuKQbRsSF-46" value="Diğer Şirket Haberleri" style="rounded=1;whiteSpace=wrap;html=1;labelBackgroundColor=#ffffff;fontColor=#000000;align=center;" vertex="1" parent="cIJ_WQR91GRco4EYi2IJ-1">
          <mxGeometry x="110" y="740" width="190" height="60" as="geometry" />
        </mxCell>
        <mxCell id="i56D42FVd3ZtuKQbRsSF-53" value="Takip Listesi" style="rounded=1;whiteSpace=wrap;html=1;labelBackgroundColor=#ffffff;fontColor=#000000;align=center;" vertex="1" parent="cIJ_WQR91GRco4EYi2IJ-1">
          <mxGeometry x="300" y="740" width="190" height="60" as="geometry" />
        </mxCell>
        <mxCell id="i56D42FVd3ZtuKQbRsSF-55" value="Görüşlerim" style="rounded=1;whiteSpace=wrap;html=1;labelBackgroundColor=#ffffff;fontColor=#000000;align=center;" vertex="1" parent="cIJ_WQR91GRco4EYi2IJ-1">
          <mxGeometry x="490" y="740" width="190" height="60" as="geometry" />
        </mxCell>
        <mxCell id="i56D42FVd3ZtuKQbRsSF-56" value="Profil" style="rounded=1;whiteSpace=wrap;html=1;labelBackgroundColor=#ffffff;fontColor=#000000;align=center;" vertex="1" parent="cIJ_WQR91GRco4EYi2IJ-1">
          <mxGeometry x="680" y="740" width="110" height="60" as="geometry" />
        </mxCell>
        <mxCell id="i56D42FVd3ZtuKQbRsSF-61" value="" style="shape=partialRectangle;whiteSpace=wrap;html=1;left=0;right=0;fillColor=none;labelBackgroundColor=#ffffff;fontColor=#000000;align=center;" vertex="1" parent="cIJ_WQR91GRco4EYi2IJ-1">
          <mxGeometry x="135" y="310" width="615" height="60" as="geometry" />
        </mxCell>
        <mxCell id="i56D42FVd3ZtuKQbRsSF-62" value="" style="ellipse;shape=doubleEllipse;whiteSpace=wrap;html=1;aspect=fixed;labelBackgroundColor=#ffffff;fontColor=#000000;align=center;" vertex="1" parent="cIJ_WQR91GRco4EYi2IJ-1">
          <mxGeometry x="695" y="70" width="80" height="80" as="geometry" />
        </mxCell>
        <mxCell id="i56D42FVd3ZtuKQbRsSF-66" value="&lt;b&gt;&lt;font style=&quot;font-size: 15px&quot;&gt;CrazyTurk06&lt;/font&gt;&lt;/b&gt;&lt;br&gt;Yatırımcı Puanı: 1450" style="text;html=1;strokeColor=none;fillColor=none;align=center;verticalAlign=middle;whiteSpace=wrap;rounded=0;labelBackgroundColor=#ffffff;fontColor=#000000;" vertex="1" parent="cIJ_WQR91GRco4EYi2IJ-1">
          <mxGeometry x="540" y="110" width="140" height="20" as="geometry" />
        </mxCell>
      </root>
    </mxGraphModel>
  </diagram>
</mxfile>
